<svg width="88" height="31" viewBox="0 0 88 31" fill="none" xmlns="http://www.w3.org/2000/svg">
<path d="M10.048 23.256C9.32267 21.2933 8.58667 19.3733 7.84 17.496C7.09333 15.5973 6.35733 13.7627 5.632 11.992C4.90667 10.2213 4.20267 8.54667 3.52 6.968C3.05067 5.944 2.67733 5.176 2.4 4.664C2.144 4.152 1.888 3.8 1.632 3.608C1.39733 3.416 1.10933 3.288 0.768 3.224C0.682667 2.968 0.618667 2.66933 0.576 2.328C0.554667 1.98667 0.544 1.63467 0.544 1.272C0.8 1.29333 1.12 1.31467 1.504 1.336C1.888 1.336 2.304 1.34667 2.752 1.368C3.2 1.368 3.62667 1.368 4.032 1.368C4.45867 1.368 4.82133 1.368 5.12 1.368C5.71733 1.368 6.44267 1.368 7.296 1.368C8.14933 1.34667 8.992 1.31467 9.824 1.272C9.80267 1.67733 9.77067 2.05067 9.728 2.392C9.70667 2.712 9.664 2.98933 9.6 3.224C8.98133 3.288 8.53333 3.42667 8.256 3.64C8 3.832 7.904 4.152 7.968 4.6C8.032 5.048 8.24533 5.70933 8.608 6.584C9.12 7.82133 9.61067 9.048 10.08 10.264C10.5707 11.48 11.04 12.728 11.488 14.008C11.936 15.288 12.3947 16.664 12.864 18.136H12.064C12.6827 16.7493 13.248 15.4373 13.76 14.2C14.2933 12.9413 14.8053 11.6827 15.296 10.424C15.7867 9.144 16.2773 7.78933 16.768 6.36C17.0667 5.464 17.1413 4.74933 16.992 4.216C16.8427 3.66133 16.3627 3.33067 15.552 3.224C15.4667 2.968 15.4027 2.68 15.36 2.36C15.3387 2.01867 15.328 1.656 15.328 1.272C15.6267 1.29333 15.9573 1.31467 16.32 1.336C16.6827 1.336 17.056 1.34667 17.44 1.368C17.8453 1.368 18.208 1.368 18.528 1.368C19.04 1.368 19.6053 1.35733 20.224 1.336C20.8427 1.31467 21.3547 1.29333 21.76 1.272C21.76 1.63467 21.7387 1.98667 21.696 2.328C21.6533 2.648 21.5893 2.94667 21.504 3.224C20.9067 3.352 20.416 3.69333 20.032 4.248C19.6693 4.78133 19.264 5.60267 18.816 6.712C17.7707 9.42133 16.6933 12.12 15.584 14.808C14.496 17.496 13.3653 20.2373 12.192 23.032C11.8933 23.1387 11.552 23.2027 11.168 23.224C10.8053 23.2453 10.432 23.256 10.048 23.256ZM32.6065 13.464C33.0972 12.2907 33.2358 11.4907 33.0225 11.064C32.8305 10.6373 32.3505 10.36 31.5825 10.232C31.4972 9.95467 31.4225 9.64533 31.3585 9.304C31.3158 8.96267 31.2945 8.61067 31.2945 8.248C31.7852 8.26933 32.3078 8.29067 32.8625 8.312C33.4172 8.33333 33.9612 8.344 34.4945 8.344C35.0705 8.344 35.6145 8.33333 36.1265 8.312C36.6385 8.29067 37.1292 8.26933 37.5985 8.248C37.5985 8.54667 37.5772 8.87733 37.5345 9.24C37.5132 9.60267 37.4385 9.93333 37.3105 10.232C36.9478 10.3173 36.6385 10.456 36.3825 10.648C36.1478 10.8187 35.9238 11.0853 35.7105 11.448C35.4972 11.8107 35.2518 12.3227 34.9745 12.984L30.2705 24.184C29.6732 25.6347 29.1185 26.808 28.6065 27.704C28.1158 28.6 27.6358 29.2827 27.1665 29.752C26.7185 30.2213 26.2598 30.5413 25.7905 30.712C25.3425 30.8827 24.8625 30.968 24.3505 30.968C23.6678 30.968 23.0492 30.84 22.4945 30.584C21.9612 30.328 21.5558 30.04 21.2785 29.72C21.2145 29.336 21.2038 28.856 21.2465 28.28C21.2892 27.704 21.3852 27.2133 21.5345 26.808C21.8972 26.9147 22.3238 27 22.8145 27.064C23.3265 27.1493 23.8705 27.192 24.4465 27.192C25.1292 27.192 25.7052 27.0747 26.1745 26.84C26.6652 26.6053 27.0918 26.1893 27.4545 25.592C27.6678 25.272 28.0412 24.5253 28.5745 23.352C29.1292 22.1787 29.7372 20.7387 30.3985 19.032L32.6065 13.464ZM28.3825 24.312C27.8705 23.096 27.3052 21.816 26.6865 20.472C26.0892 19.128 25.5025 17.8267 24.9265 16.568C24.3505 15.288 23.8172 14.1573 23.3265 13.176C22.9638 12.3653 22.6438 11.768 22.3665 11.384C22.0892 11 21.8225 10.7227 21.5665 10.552C21.3105 10.3813 21.0225 10.2747 20.7025 10.232C20.6172 9.976 20.5532 9.66667 20.5105 9.304C20.4678 8.94133 20.4465 8.58933 20.4465 8.248C21.0652 8.26933 21.7478 8.29067 22.4945 8.312C23.2625 8.33333 24.0092 8.344 24.7345 8.344C25.5025 8.344 26.3452 8.33333 27.2625 8.312C28.1798 8.29067 28.9692 8.26933 29.6305 8.248C29.6305 8.61067 29.5985 8.97333 29.5345 9.336C29.4918 9.69867 29.4278 9.99733 29.3425 10.232C28.3612 10.3813 27.8065 10.648 27.6785 11.032C27.5718 11.416 27.7745 12.1307 28.2865 13.176C28.5852 13.7733 28.9052 14.456 29.2465 15.224C29.5878 15.992 29.9078 16.7707 30.2065 17.56C30.5265 18.3493 30.8145 19.128 31.0705 19.896L28.3825 24.312ZM41.456 16.312V13.528C41.456 12.9093 41.4027 12.4293 41.296 12.088C41.2107 11.7253 40.9973 11.4587 40.656 11.288C40.336 11.096 39.824 10.9787 39.12 10.936C39.12 10.616 39.1413 10.3067 39.184 10.008C39.248 9.688 39.3547 9.38933 39.504 9.112C40.6347 9.112 41.7227 9.00533 42.768 8.792C43.8347 8.55733 44.6133 8.312 45.104 8.056C45.4027 8.16267 45.6267 8.35467 45.776 8.632C45.9467 8.888 46.032 9.272 46.032 9.784L41.456 16.312ZM56.176 18.36C56.176 19.4267 56.2933 20.1627 56.528 20.568C56.784 20.952 57.2 21.144 57.776 21.144C57.8827 21.4 57.9467 21.688 57.968 22.008C58.0107 22.3067 58.032 22.6693 58.032 23.096C57.5627 23.0747 56.9547 23.0533 56.208 23.032C55.4827 23.0107 54.768 23 54.064 23C53.5947 23 53.0613 23 52.464 23C51.888 23.0213 51.3333 23.032 50.8 23.032C50.2667 23.0533 49.84 23.0747 49.52 23.096C49.52 22.712 49.5307 22.36 49.552 22.04C49.5733 21.72 49.6373 21.4213 49.744 21.144C50.3413 21.144 50.8 20.9307 51.12 20.504C51.44 20.0773 51.6 19.2987 51.6 18.168V14.68C51.6 13.336 51.3867 12.408 50.96 11.896C50.5333 11.3627 49.9253 11.096 49.136 11.096C48.624 11.096 48.1227 11.2987 47.632 11.704C47.1627 12.088 46.7787 12.664 46.48 13.432C46.1813 14.1787 46.032 15.1173 46.032 16.248V18.36C46.032 19.448 46.1707 20.184 46.448 20.568C46.7467 20.952 47.216 21.144 47.856 21.144C47.984 21.4427 48.0587 21.7413 48.08 22.04C48.1013 22.3387 48.112 22.6907 48.112 23.096C47.8133 23.0747 47.408 23.0533 46.896 23.032C46.384 23.032 45.8507 23.0213 45.296 23C44.7627 23 44.2507 23 43.76 23C43.2693 23 42.7253 23 42.128 23C41.5307 23.0213 40.9547 23.032 40.4 23.032C39.8453 23.0533 39.408 23.0747 39.088 23.096C39.088 22.6907 39.1093 22.3173 39.152 21.976C39.1947 21.6347 39.2587 21.3573 39.344 21.144C40.176 21.144 40.7307 20.952 41.008 20.568C41.3067 20.1627 41.456 19.4267 41.456 18.36V13.528L46.032 9.784C46.032 10.04 46 10.3387 45.936 10.68C45.8933 11 45.8187 11.3413 45.712 11.704C45.84 11.448 45.968 11.192 46.096 10.936C46.224 10.68 46.3947 10.4347 46.608 10.2C47.0347 9.70933 47.632 9.26133 48.4 8.856C49.168 8.42933 50.0533 8.216 51.056 8.216C51.952 8.216 52.784 8.38667 53.552 8.728C54.3413 9.06933 54.9707 9.624 55.44 10.392C55.9307 11.16 56.176 12.1733 56.176 13.432V18.36ZM60.1818 23.096C60.1818 22.712 60.1924 22.36 60.2138 22.04C60.2564 21.6987 60.3204 21.4 60.4058 21.144C61.2591 21.1227 61.8244 20.92 62.1018 20.536C62.4004 20.152 62.5498 19.4267 62.5498 18.36V13.208C62.5498 12.696 62.4964 12.28 62.3898 11.96C62.2831 11.64 62.0591 11.4053 61.7178 11.256C61.3764 11.0853 60.8644 10.9787 60.1818 10.936C60.1818 10.616 60.2031 10.3067 60.2458 10.008C60.2884 9.688 60.3844 9.38933 60.5338 9.112C61.2378 9.112 61.9631 9.05867 62.7098 8.952C63.4778 8.84533 64.1711 8.71733 64.7898 8.568C65.4298 8.39733 65.8991 8.22667 66.1978 8.056C66.4751 8.16267 66.6991 8.35467 66.8698 8.632C67.0404 8.888 67.1258 9.26133 67.1258 9.752V18.36C67.1258 19.4267 67.2644 20.152 67.5417 20.536C67.8191 20.92 68.3418 21.1227 69.1098 21.144C69.1951 21.4 69.2484 21.7093 69.2698 22.072C69.3124 22.4133 69.3338 22.7547 69.3338 23.096C69.0138 23.0747 68.6084 23.0533 68.1178 23.032C67.6271 23.032 67.0938 23.0213 66.5178 23C65.9418 23 65.3658 23 64.7898 23C64.2138 23 63.6271 23 63.0298 23C62.4324 23.0213 61.8884 23.032 61.3978 23.032C60.9071 23.0533 60.5018 23.0747 60.1818 23.096ZM64.4378 5.528C63.6698 5.528 63.0404 5.32533 62.5498 4.92C62.0804 4.49333 61.8458 3.94933 61.8458 3.288C61.8458 2.52 62.1124 1.92267 62.6458 1.496C63.1791 1.06933 63.8191 0.855999 64.5658 0.855999C65.4404 0.855999 66.1124 1.06933 66.5818 1.496C67.0511 1.92267 67.2858 2.50933 67.2858 3.256C67.2858 3.896 67.0298 4.44 66.5178 4.888C66.0058 5.31467 65.3124 5.528 64.4378 5.528ZM79.047 16.024L77.415 18.424C76.775 19.4053 76.455 20.0987 76.455 20.504C76.4763 20.888 76.711 21.1013 77.159 21.144C77.2657 21.4 77.3297 21.688 77.351 22.008C77.3723 22.328 77.383 22.68 77.383 23.064C76.871 23.0213 76.295 23 75.655 23C75.0363 23 74.5137 23 74.087 23C73.6817 23 73.2337 23 72.743 23C72.2523 23 71.751 23.0213 71.239 23.064C71.239 22.7013 71.2603 22.3493 71.303 22.008C71.3457 21.6667 71.431 21.3787 71.559 21.144C71.9003 21.1227 72.2097 21.0373 72.487 20.888C72.7857 20.7173 73.127 20.4187 73.511 19.992C73.895 19.5653 74.3857 18.9147 74.983 18.04L77.223 14.776L79.047 16.024ZM79.335 18.936C79.079 18.552 78.8443 18.2 78.631 17.88C78.4177 17.5387 78.151 17.144 77.831 16.696L77.063 16.248C76.615 15.5013 76.135 14.7653 75.623 14.04C75.1323 13.2933 74.6737 12.6427 74.247 12.088C73.863 11.576 73.543 11.192 73.287 10.936C73.031 10.68 72.7857 10.4987 72.551 10.392C72.3163 10.264 72.0283 10.1893 71.687 10.168C71.5803 9.912 71.5057 9.61333 71.463 9.272C71.4203 8.93067 71.399 8.6 71.399 8.28C71.9537 8.30133 72.6043 8.32267 73.351 8.344C74.0977 8.344 74.855 8.344 75.623 8.344C76.4123 8.344 77.2123 8.344 78.023 8.344C78.8337 8.32267 79.5483 8.30133 80.167 8.28C80.167 8.6 80.1457 8.94133 80.103 9.304C80.0817 9.66667 80.039 9.95467 79.975 10.168C79.3777 10.1893 79.047 10.3493 78.983 10.648C78.919 10.9467 79.175 11.512 79.751 12.344C79.9643 12.664 80.1883 12.984 80.423 13.304C80.6577 13.624 80.9137 14.008 81.191 14.456L82.023 14.872C82.4497 15.4693 82.8763 16.0667 83.303 16.664C83.7297 17.2613 84.1137 17.816 84.455 18.328C84.9243 19.0533 85.3083 19.6187 85.607 20.024C85.9057 20.408 86.183 20.6747 86.439 20.824C86.7163 20.9733 87.0257 21.0693 87.367 21.112C87.4737 21.3893 87.5377 21.688 87.559 22.008C87.6017 22.3067 87.623 22.648 87.623 23.032C87.047 22.9893 86.5137 22.9787 86.023 23C85.5323 23 84.9243 23 84.199 23C83.8363 23 83.4097 23 82.919 23C82.4497 23 81.9483 23 81.415 23C80.903 23 80.4123 23 79.943 23C79.495 23.0213 79.1217 23.0427 78.823 23.064C78.823 22.6373 78.8337 22.2747 78.855 21.976C78.8977 21.656 78.951 21.3787 79.015 21.144C79.5697 21.08 79.8897 20.8987 79.975 20.6C80.0603 20.3013 79.847 19.7467 79.335 18.936ZM80.167 14.84L81.831 12.312C82.3217 11.544 82.567 11.0107 82.567 10.712C82.567 10.4133 82.2897 10.232 81.735 10.168C81.6497 9.93333 81.5857 9.64533 81.543 9.304C81.5003 8.96267 81.479 8.62133 81.479 8.28C81.9483 8.30133 82.4177 8.32267 82.887 8.344C83.3563 8.344 83.911 8.344 84.551 8.344C85.191 8.344 85.703 8.344 86.087 8.344C86.471 8.32267 86.8763 8.30133 87.303 8.28C87.303 8.62133 87.271 8.96267 87.207 9.304C87.1643 9.624 87.1003 9.912 87.015 10.168C86.695 10.1893 86.4177 10.2533 86.183 10.36C85.9697 10.4667 85.735 10.6587 85.479 10.936C85.223 11.2133 84.903 11.6293 84.519 12.184L81.799 16.152L80.167 14.84Z" fill="black"/>
</svg>
